<?xml version="1.0" encoding="UTF-8" standalone="no"?><!DOCTYPE svg PUBLIC "-//W3C//DTD SVG 1.1//EN" "http://www.w3.org/Graphics/SVG/1.1/DTD/svg11.dtd"><svg width="100%" height="100%" viewBox="0 0 156 248" version="1.1" xmlns="http://www.w3.org/2000/svg" xmlns:xlink="http://www.w3.org/1999/xlink" xml:space="preserve" xmlns:serif="http://www.serif.com/" style="fill-rule:evenodd;clip-rule:evenodd;stroke-linecap:round;stroke-linejoin:round;stroke-miterlimit:1.5;"><g id="body"><circle cx="77.653" cy="98.29" r="75.653" style="fill:#fff79d;stroke:#000;stroke-width:4px;"/><g><path d="M72.407,168.559l0,29.756c1.509,2.094 1.771,4.663 1.771,7.439c0,2.776 -0.262,5.345 -1.771,7.439l0,31.856l-21.944,0l-0,-31.856c-1.509,-2.094 -1.771,-4.663 -1.771,-7.439c0,-2.776 0.262,-5.345 1.771,-7.439l0,-36.025" style="fill:#fff79d;stroke:#000;stroke-width:4px;"/><path d="M82.899,168.559l0,29.756c-1.509,2.094 -1.771,4.663 -1.771,7.439c0,2.776 0.262,5.345 1.771,7.439l0,31.856l21.944,0l0,-31.856c1.509,-2.094 1.771,-4.663 1.771,-7.439c0,-2.776 -0.262,-5.345 -1.771,-7.439l-0,-36.025" style="fill:#fff79d;stroke:#000;stroke-width:4px;"/></g></g><g><path d="M39.827,85.921l4.741,3.487l-4.741,3.487" style="fill:none;stroke:#dbd185;stroke-width:2px;"/><path d="M44.567,89.408l-8.084,0" style="fill:none;stroke:#dbd185;stroke-width:2px;"/></g><g><path d="M114.386,85.921l-4.741,3.487l4.741,3.487" style="fill:none;stroke:#dbd185;stroke-width:2px;"/><path d="M109.645,89.408l8.084,0" style="fill:none;stroke:#dbd185;stroke-width:2px;"/></g><path d="M51.174,88.676c1.022,-2.63 5.088,-4.598 9.943,-4.598c4.855,0 8.921,1.968 9.943,4.598" style="fill:none;stroke:#000;stroke-width:4px;"/><path d="M84.246,88.676c1.022,-2.63 5.088,-4.598 9.943,-4.598c4.855,0 8.921,1.968 9.943,4.598" style="fill:none;stroke:#000;stroke-width:4px;"/><path d="M96.181,110.805c0,0 -1.463,6.282 -6.312,8.953c-4.597,2.532 -10.91,0.99 -10.91,0.99" style="fill:none;stroke:#000;stroke-width:4px;"/><g id="shoes"><path d="M55.633,245.048c0,0 -5.628,-0.055 -6.521,-0.055c-14.045,0 -13.042,-3.932 -13.042,-8.775c0,-4.843 5.844,-8.775 13.042,-8.775c5.237,0 9.757,2.081 11.831,5.08l12.948,0l0,12.525l-18.258,0Z" style="fill:#cef597;stroke:#000;stroke-width:4px;"/><path d="M87.927,245.048c0,0 -5.628,-0.055 -6.521,-0.055c-14.045,0 -13.042,-3.932 -13.042,-8.775c0,-4.843 5.844,-8.775 13.042,-8.775c5.237,0 9.757,2.081 11.831,5.08l12.948,0l0,12.525l-18.258,0Z" style="fill:#cef597;stroke:#000;stroke-width:4px;"/></g><g id="hat"><path d="M100.392,21.596c17.533,5.378 30.601,13.549 29.163,18.236c-1.438,4.687 -16.839,4.125 -34.373,-1.253c-17.533,-5.378 -30.601,-13.549 -29.163,-18.236c1.438,-4.687 16.839,-4.125 34.373,1.253Z" style="fill:#cef597;stroke:#000;stroke-width:4px;"/><path d="M111.19,8.732c2.499,0.766 4.591,2.494 5.815,4.803c1.225,2.309 1.482,5.01 0.716,7.508c-1.782,5.81 -3.729,12.157 -3.729,12.157c-8.768,-0.269 -18.962,-2.825 -31.368,-9.622c0,0 1.933,-6.302 3.71,-12.094c0.772,-2.515 2.511,-4.621 4.835,-5.854c2.324,-1.233 5.043,-1.492 7.558,-0.721c3.948,1.211 8.521,2.614 12.463,3.823Z" style="fill:#cef597;stroke:#000;stroke-width:4px;"/></g></svg>