<?xml version="1.0" encoding="UTF-8" standalone="no"?><!DOCTYPE svg PUBLIC "-//W3C//DTD SVG 1.1//EN" "http://www.w3.org/Graphics/SVG/1.1/DTD/svg11.dtd"><svg width="100%" height="100%" viewBox="0 0 156 244" version="1.1" xmlns="http://www.w3.org/2000/svg" xmlns:xlink="http://www.w3.org/1999/xlink" xml:space="preserve" xmlns:serif="http://www.serif.com/" style="fill-rule:evenodd;clip-rule:evenodd;stroke-linecap:round;stroke-linejoin:round;stroke-miterlimit:1.5;"><path d="M114.004,10.102c0.612,-2.879 6.245,-8.031 6.245,-8.031c0,0 4.119,-0.88 0.492,3.52c-3.627,4.4 -4.126,6.284 -4.126,6.284c0,0 -4.322,6.272 -2.611,-1.773Z" style="fill:#f47c3b;stroke:#000;stroke-width:4px;"/><g id="body"><circle cx="77.653" cy="94.438" r="75.653" style="fill:#afceff;stroke:#000;stroke-width:4px;"/><g><path d="M72.407,164.707l0,29.756c1.509,2.094 1.771,4.663 1.771,7.439c0,2.776 -0.262,5.345 -1.771,7.439l0,31.856l-21.944,0l-0,-31.856c-1.509,-2.094 -1.771,-4.663 -1.771,-7.439c0,-2.776 0.262,-5.345 1.771,-7.439l0,-36.025" style="fill:#afceff;stroke:#000;stroke-width:4px;"/><path d="M82.899,164.707l0,29.756c-1.509,2.094 -1.771,4.663 -1.771,7.439c0,2.776 0.262,5.345 1.771,7.439l0,31.856l21.944,0l0,-31.856c1.509,-2.094 1.771,-4.663 1.771,-7.439c0,-2.776 -0.262,-5.345 -1.771,-7.439l-0,-36.025" style="fill:#afceff;stroke:#000;stroke-width:4px;"/></g></g><g><path d="M39.827,82.069l4.741,3.487l-4.741,3.487" style="fill:none;stroke:#95bcfa;stroke-width:2px;"/><path d="M44.567,85.556l-8.084,0" style="fill:none;stroke:#95bcfa;stroke-width:2px;"/></g><g><path d="M114.386,82.069l-4.741,3.487l4.741,3.487" style="fill:none;stroke:#95bcfa;stroke-width:2px;"/><path d="M109.645,85.556l8.084,0" style="fill:none;stroke:#95bcfa;stroke-width:2px;"/></g><path d="M51.174,84.825c1.022,-2.63 5.088,-4.598 9.943,-4.598c4.855,0 8.921,1.968 9.943,4.598" style="fill:none;stroke:#000;stroke-width:4px;"/><path d="M84.246,84.825c1.022,-2.63 5.088,-4.598 9.943,-4.598c4.855,0 8.921,1.968 9.943,4.598" style="fill:none;stroke:#000;stroke-width:4px;"/><path d="M96.181,106.953c0,0 -1.463,6.282 -6.312,8.953c-4.597,2.532 -10.91,0.99 -10.91,0.99" style="fill:none;stroke:#000;stroke-width:4px;"/><g id="shoes"><path d="M55.633,241.196c0,0 -5.628,-0.055 -6.521,-0.055c-14.045,0 -13.042,-3.932 -13.042,-8.775c0,-4.843 5.844,-8.775 13.042,-8.775c5.237,0 9.757,2.081 11.831,5.08l12.948,0l0,12.525l-18.258,0Z" style="fill:#f47c3b;stroke:#000;stroke-width:4px;"/><path d="M87.927,241.196c0,0 -5.628,-0.055 -6.521,-0.055c-14.045,0 -13.042,-3.932 -13.042,-8.775c0,-4.843 5.844,-8.775 13.042,-8.775c5.237,0 9.757,2.081 11.831,5.08l12.948,0l0,12.525l-18.258,0Z" style="fill:#f47c3b;stroke:#000;stroke-width:4px;"/></g><path d="M66.073,12.386l-2.707,7.952c0,0 29.656,7.796 43.361,12.733c13.705,4.937 31.107,15.153 31.107,15.153l3.016,-8.861c0,0 -15.087,-10.112 -30.861,-15.876c-19.783,-7.229 -43.917,-11.101 -43.917,-11.101Z" style="fill:#f47c3b;stroke:#000;stroke-width:4px;"/><path d="M73.357,18.011c0,0 -12.592,-2.017 -9.812,-12.037c2.105,-7.585 30.002,-1.208 42.363,2.127c11.932,3.219 27.722,16.683 27.722,16.683c0,0 11.096,8.003 10.56,17.428c-0.168,2.955 -12.906,-1.581 -15.937,-2.88c-6.78,-2.905 -14.556,-10.514 -24.745,-14.548c-9.687,-3.835 -30.151,-6.774 -30.151,-6.774Z" style="fill:#f47c3b;stroke:#000;stroke-width:4px;"/></svg>