<?xml version="1.0" standalone="no"?>
<!DOCTYPE svg PUBLIC "-//W3C//DTD SVG 20010904//EN"
 "http://www.w3.org/TR/2001/REC-SVG-20010904/DTD/svg10.dtd">
<svg version="1.0" xmlns="http://www.w3.org/2000/svg"
 width="416.000000pt" height="385.000000pt" viewBox="0 0 416.000000 385.000000"
 preserveAspectRatio="xMidYMid meet">

<g transform="translate(0.000000,385.000000) scale(0.100000,-0.100000)"
fill="#3F3E42" stroke="none">
<path d="M1210 3354 c-433 -434 -481 -485 -450 -480 85 15 314 18 403 6 124
-16 267 -66 363 -125 76 -47 294 -250 294 -273 0 -10 -253 -166 -314 -194 -24
-10 -29 -8 -61 30 -48 56 -169 135 -246 161 -96 33 -235 47 -314 34 -94 -16
-239 -89 -307 -155 -128 -123 -189 -308 -167 -504 34 -305 247 -515 540 -531
242 -14 418 75 500 252 15 33 30 70 34 83 l6 22 -255 0 -256 0 0 150 0 150
482 0 481 0 -7 -117 c-11 -205 -56 -351 -147 -484 -145 -212 -343 -339 -624
-400 -72 -16 -332 -17 -392 -2 -24 6 -43 8 -43 4 0 -10 965 -971 975 -971 6 0
224 214 485 475 l475 475 -208 0 -207 0 0 965 0 965 204 0 204 0 -471 475
c-260 261 -477 475 -482 475 -6 0 -228 -219 -495 -486z"/>
<path d="M2670 1925 c0 -520 3 -945 7 -945 3 0 217 213 474 473 258 259 469
472 469 472 0 0 -212 213 -470 473 -258 259 -471 472 -474 472 -4 0 -6 -425
-6 -945z"/>
</g>
</svg>
